<?xml version="1.0" ?>
<!-- Uploaded to: SVG Repo, www.svgrepo.com, Generator: SVG Repo Mixer Tools -->
<svg fill="#000000" width="800px" height="800px" viewBox="0 0 512 512" xmlns="http://www.w3.org/2000/svg">
<g id="Eraser">
<path d="M459.4407,221.4722,410.69,172.7192,228.9414,354.4675l28.25,28.2463-27.8308,27.83A90.4438,90.4438,0,0,1,101.4533,282.6368l27.8287-27.8287,81.1,81.0988L392.13,154.1618,290.529,52.5584a13.12,13.12,0,0,0-18.5532.001L108.7806,215.7536c-6.0519,5.9536-4.5138,15.4855,1.9418,20.4949L82.8959,264.0772a116.6913,116.6913,0,1,0,165.0259,165.027l27.8287-27.8286c5.0266,6.44,14.5221,8.0162,20.495,1.9418L459.4386,240.0233A13.1139,13.1139,0,0,0,459.4407,221.4722Z"/>
</g>
</svg>