<?xml version="1.0" encoding="utf-8"?>
<!-- Uploaded to: SVG Repo, www.svgrepo.com, Generator: SVG Repo Mixer Tools -->
<svg fill="#000000" width="800px" height="800px" viewBox="0 0 32 32" version="1.1" xmlns="http://www.w3.org/2000/svg">
<title>layers</title>
<path d="M1.508 9.149l14 6c0.145 0.064 0.314 0.101 0.492 0.101s0.347-0.037 0.5-0.104l-0.008 0.003 14-6c0.449-0.196 0.758-0.637 0.758-1.149s-0.308-0.953-0.75-1.146l-0.008-0.003-14-6c-0.145-0.064-0.314-0.101-0.492-0.101s-0.347 0.037-0.5 0.104l0.008-0.003-14 6c-0.449 0.196-0.758 0.637-0.758 1.149s0.308 0.953 0.75 1.146l0.008 0.003zM16 3.36l10.826 4.64-10.826 4.64-10.827-4.64zM30.492 14.851l-4-1.714c-0.144-0.063-0.312-0.099-0.489-0.099-0.691 0-1.25 0.56-1.25 1.25 0 0.511 0.307 0.951 0.747 1.145l0.008 0.003 1.318 0.564-10.826 4.641-10.826-4.641 1.318-0.564c0.452-0.195 0.762-0.637 0.762-1.151 0-0.691-0.56-1.25-1.25-1.25-0.179 0-0.35 0.038-0.504 0.106l0.008-0.003-4 1.714c-0.449 0.196-0.758 0.637-0.758 1.149s0.308 0.953 0.75 1.146l0.008 0.003 14 5.999c0.145 0.064 0.314 0.102 0.492 0.102s0.347-0.037 0.5-0.105l-0.008 0.003 14-5.999c0.449-0.196 0.758-0.637 0.758-1.149s-0.308-0.953-0.75-1.146l-0.008-0.003zM30.492 22.852l-4-1.715c-0.145-0.064-0.314-0.101-0.492-0.101-0.69 0-1.249 0.559-1.249 1.249 0 0.512 0.308 0.952 0.749 1.145l0.008 0.003 1.32 0.566-10.828 4.641-10.827-4.641 1.319-0.566c0.449-0.196 0.757-0.636 0.757-1.148 0-0.69-0.559-1.249-1.249-1.249-0.178 0-0.347 0.037-0.5 0.104l0.008-0.003-4 1.715c-0.449 0.196-0.758 0.636-0.758 1.148s0.308 0.953 0.75 1.145l0.008 0.003 14 6c0.145 0.064 0.314 0.102 0.492 0.102s0.347-0.037 0.5-0.105l-0.008 0.003 14-6c0.449-0.196 0.758-0.636 0.758-1.148s-0.308-0.953-0.75-1.145l-0.008-0.003z"></path>
</svg>